<svg xmlns="http://www.w3.org/2000/svg" viewBox="0 0 512 512" role="img" aria-labelledby="title desc">
  <title id="title">Family Greenhouse</title>
  <desc id="desc">Two plants growing together inside a small greenhouse.</desc>
  <rect width="512" height="512" rx="72" fill="#F7F8F2"/>
  <circle cx="382" cy="106" r="42" fill="#D7E8A9"/>

  <!-- Greenhouse glass and frame. The broad silhouette stays legible at favicon size. -->
  <path d="M96 224 256 82l160 142v202H96Z" fill="#DDEEE7"/>
  <path d="M96 224 256 82l160 142M96 224h320v202H96Z" fill="none" stroke="#27500A" stroke-width="14" stroke-linejoin="round"/>
  <path d="M256 88v338M103 225h306" fill="none" stroke="#3B6D11" stroke-width="7" opacity=".42"/>
  <path d="M112 238v174h288V238" fill="none" stroke="#F7F8F2" stroke-width="8" opacity=".72"/>
  <path d="M112 240 256 112l144 128" fill="none" stroke="#FFFFFF" stroke-width="8" opacity=".55"/>

  <!-- Shared threshold and door. -->
  <path d="M82 426h348" stroke="#A23F1A" stroke-width="18" stroke-linecap="round"/>
  <path d="M218 426V312h76v114" fill="#C0DD97" stroke="#27500A" stroke-width="9" stroke-linejoin="round"/>
  <circle cx="278" cy="370" r="6" fill="#A23F1A"/>

  <!-- Two distinct plants, one home. -->
  <path d="M160 404V276M160 316c-33-2-51-21-54-51 33 0 53 18 54 51Zm0 40c37-2 58-22 62-57-37 1-59 20-62 57Z" fill="#639922" stroke="#27500A" stroke-width="8" stroke-linecap="round" stroke-linejoin="round"/>
  <path d="M352 404V270M352 308c33-2 51-21 54-51-33 0-53 18-54 51Zm0 44c-37-2-58-22-62-57 37 1 59 20 62 57Z" fill="#97C459" stroke="#27500A" stroke-width="8" stroke-linecap="round" stroke-linejoin="round"/>
</svg>
