<svg xmlns="http://www.w3.org/2000/svg" viewBox="0 0 800 460" role="img" aria-labelledby="title desc">
  <title id="title">Family Greenhouse</title>
  <desc id="desc">Two plants growing together inside a greenhouse, with the words Family Greenhouse and Grow together.</desc>
  <defs>
    <style>
      .tagline { font-family: "Instrument Sans", Arial, sans-serif; font-size: 18px; font-weight: 500; letter-spacing: 7px; fill: #3B6D11; }
    </style>
  </defs>

  <g transform="translate(286 18) scale(.445)">
    <circle cx="382" cy="106" r="42" fill="#D7E8A9"/>
    <path d="M96 224 256 82l160 142v202H96Z" fill="#DDEEE7"/>
    <path d="M96 224 256 82l160 142M96 224h320v202H96Z" fill="none" stroke="#27500A" stroke-width="14" stroke-linejoin="round"/>
    <path d="M256 88v338M103 225h306" fill="none" stroke="#3B6D11" stroke-width="7" opacity=".42"/>
    <path d="M112 238v174h288V238M112 240 256 112l144 128" fill="none" stroke="#FFFFFF" stroke-width="8" opacity=".6"/>
    <path d="M82 426h348" stroke="#A23F1A" stroke-width="18" stroke-linecap="round"/>
    <path d="M218 426V312h76v114" fill="#C0DD97" stroke="#27500A" stroke-width="9" stroke-linejoin="round"/>
    <circle cx="278" cy="370" r="6" fill="#A23F1A"/>
    <path d="M160 404V276M160 316c-33-2-51-21-54-51 33 0 53 18 54 51Zm0 40c37-2 58-22 62-57-37 1-59 20-62 57Z" fill="#639922" stroke="#27500A" stroke-width="8" stroke-linecap="round" stroke-linejoin="round"/>
    <path d="M352 404V270M352 308c33-2 51-21 54-51-33 0-53 18-54 51Zm0 44c-37-2-58-22-62-57 37 1 59 20 62 57Z" fill="#97C459" stroke="#27500A" stroke-width="8" stroke-linecap="round" stroke-linejoin="round"/>
  </g>

  <!-- Bitter Regular 70px, shaped once and stored as outlines so this public
       SVG keeps the reviewed wordmark when viewed outside the web app. -->
  <path
    id="bitter-wordmark-outline"
    data-font-family="Bitter"
    aria-hidden="true"
    fill="#27500A"
    transform="translate(82.915 318) scale(1 -1)"
    d="
      M3.43,0L3.43,3.01L10.22,4.41L9.45,3.43L9.45,45.5L10.43,44.24L3.43,45.5L3.43,48.51L15.12,48.86L37.31,48.86L37.38,37.73L33.88,37.73L32.62,45.36L33.81,44.59L14.14,44.59L15.19,45.64L15.19,25.55L14.14,26.53L32.13,26.53L32.13,22.26L14.14,22.26L15.19,23.24L15.19,3.43L14.35,4.41L22.75,3.01L22.75,0L3.43,0Z
      M68.68,3.15L67.77,4.41L74.21,3.15L74.21,0.07L64.41,-0.35L63.57,6.37L64.06,6.16Q60.98,2.8 57.41,1.09Q53.84,-0.63 50.48,-0.63Q46.42,-0.63 43.62,1.96Q40.82,4.55 40.82,9.8Q40.82,13.93 42.57,16.14Q44.32,18.34 47.4,19.25Q50.48,20.16 54.54,20.16L63.71,20.16L63.08,19.46L63.08,26.18Q63.08,30.03 61.05,31.67Q59.02,33.32 55.45,33.32Q53.56,33.32 51.42,32.93Q49.29,32.55 46.91,31.71L47.75,32.62L47.05,26.25L43.34,26.25L42.78,34.93Q46.77,36.26 50.27,36.92Q53.77,37.59 56.71,37.59Q62.31,37.59 65.49,35.1Q68.68,32.62 68.68,27.16L68.68,3.15ZM46.49,10.29Q46.49,6.86 48.14,5.25Q49.78,3.64 52.3,3.64Q54.75,3.64 57.72,5.14Q60.7,6.65 63.5,9.24L63.08,7.77L63.08,17.15L63.71,16.52L55.38,16.52Q50.41,16.52 48.45,15.02Q46.49,13.51 46.49,10.29Z
      M111.88,30.59L111.11,30.45Q114.54,34.02 118.39,35.81Q122.24,37.59 125.6,37.59Q129.87,37.59 132.77,34.76Q135.68,31.92 135.68,26.04L135.68,3.36L134.98,4.34L141.14,3.01L141.14,0L124.9,0L124.9,3.01L130.85,4.34L130.08,3.29L130.08,24.78Q130.08,29.12 128.22,31.15Q126.37,33.18 123.43,33.18Q120.91,33.18 117.86,31.71Q114.82,30.24 111.88,27.23L112.37,28.56Q112.44,27.93 112.47,27.37Q112.51,26.81 112.51,26.25L112.51,3.36L111.81,4.34L117.62,3.01L117.62,0L101.8,0L101.8,3.01L107.75,4.34L106.91,3.29L106.91,24.78Q106.91,29.12 105.05,31.15Q103.2,33.18 100.26,33.18Q97.74,33.18 94.73,31.78Q91.72,30.38 88.78,27.44L89.27,28.49L89.27,3.29L88.57,4.27L94.38,3.01L94.38,0L78.21,0L78.21,3.01L84.51,4.41L83.67,3.36L83.67,33.46L84.51,32.41L78.21,33.74L78.21,36.75L88.01,37.24L88.78,30.38L88.01,30.66Q91.44,34.23 95.25,35.91Q99.07,37.59 102.5,37.59Q105.72,37.59 108.24,35.88Q110.76,34.16 111.88,30.59Z
      M156.05,3.57L155.42,4.34L161.51,3.01L161.51,0L144.99,0L144.99,3.01L151.08,4.34L150.45,3.57L150.45,33.11L151.01,32.48L144.99,33.74L144.99,36.75L156.05,37.17L156.05,3.57ZM152.83,44.73Q151.22,44.73 150.17,45.78Q149.12,46.83 149.12,48.65Q149.12,50.54 150.2,51.56Q151.29,52.57 152.9,52.57Q154.58,52.57 155.63,51.59Q156.68,50.61 156.68,48.65Q156.68,46.76 155.56,45.74Q154.44,44.73 152.83,44.73Z
      M176.07,3.57L175.51,4.34L181.6,3.01L181.6,0L165.01,0L165.01,3.01L171.1,4.34L170.47,3.57L170.47,49.91L171.03,49.28L165.01,50.54L165.01,53.55L176.07,54.04L176.07,3.57Z
      M183.35,-16.38L183.84,-12.25Q184.68,-12.39 185.41,-12.46Q186.15,-12.53 186.78,-12.53Q190.21,-12.53 192.34,-10.95Q194.48,-9.38 195.95,-6.23Q197.42,-3.08 198.96,1.61L198.75,-0.49L185.66,33.6L186.43,32.97L181.88,33.74L181.88,36.75L197.21,37.24L197.21,34.16L190.91,33.11L191.33,33.74L201.76,3.99L200.5,4.27L210.51,33.6L210.93,32.97L204.77,33.74L204.77,36.75L219.61,37.24L219.61,34.16L214.71,33.04L215.69,33.67L203.37,-0.14Q202.11,-3.64 200.74,-6.65Q199.38,-9.66 197.63,-11.93Q195.88,-14.21 193.36,-15.47Q190.84,-16.73 187.27,-16.73Q185.66,-16.73 183.35,-16.38Z
      M259.93,-0.56Q253.14,-0.56 248.1,2.2Q243.06,4.97 240.29,10.47Q237.53,15.96 237.53,23.94Q237.53,32.06 240.33,37.76Q243.13,43.47 248.34,46.48Q253.56,49.49 260.7,49.49Q264.48,49.49 268.64,48.62Q272.81,47.74 277.08,45.92L276.59,35L273.09,35L271.9,43.61L272.81,42.63Q269.87,43.68 266.72,44.31Q263.57,44.94 260.77,44.94Q255.52,44.94 251.67,42.49Q247.82,40.04 245.75,35.39Q243.69,30.73 243.69,24.08Q243.69,14.42 248.17,9.2Q252.65,3.99 260.63,3.99Q263.29,3.99 266.19,4.59Q269.1,5.18 272.25,6.37L271.48,5.04L271.48,20.16L272.53,19.11L265.39,20.02L265.39,23.17L282.68,23.52L282.68,20.37L276.1,19.04L276.87,20.16L276.87,3.15Q272.32,1.26 268.05,0.35Q263.78,-0.56 259.93,-0.56Z
      M287.64,0L287.64,3.01L293.8,4.34L293.1,3.29L293.1,33.46L293.87,32.41L287.64,33.74L287.64,36.75L297.44,37.24L298.21,30.38L297.44,30.66Q300.59,33.95 303.6,35.77Q306.61,37.59 310.18,37.59Q312.42,37.59 314.87,36.89L314.45,27.09L310.95,27.09L310.11,34.02L310.74,32.76Q310.25,32.9 309.69,32.97Q309.13,33.04 308.57,33.04Q305.77,33.04 303.15,31.36Q300.52,29.68 298.14,27.02L298.7,28.7L298.7,3.29L297.86,4.34L305.49,3.01L305.49,0L287.64,0Z
      M333.63,-0.63Q328.94,-0.63 325.34,1.51Q321.73,3.64 319.7,7.77Q317.67,11.9 317.67,17.85Q317.67,23.94 319.77,28.35Q321.87,32.76 325.72,35.17Q329.57,37.59 334.75,37.59Q339.65,37.59 342.84,35.53Q346.02,33.46 347.6,29.82Q349.17,26.18 349.17,21.49Q349.17,20.72 349.1,19.95Q349.03,19.18 348.89,18.06L321.94,18.06L321.94,22.05L343.99,22.05L343.36,21.63Q343.43,24.78 342.59,27.44Q341.75,30.1 339.72,31.71Q337.69,33.32 334.33,33.32Q330.76,33.32 328.31,31.43Q325.86,29.54 324.67,26.25Q323.48,22.96 323.48,18.62Q323.48,14 324.81,10.68Q326.14,7.35 328.7,5.53Q331.25,3.71 334.96,3.71Q337.55,3.71 340.63,4.73Q343.71,5.74 347,7.84L349.03,4.69Q345.11,2.03 341.19,0.7Q337.27,-0.63 333.63,-0.63Z
      M371.93,-0.63Q367.24,-0.63 363.63,1.51Q360.03,3.64 358,7.77Q355.97,11.9 355.97,17.85Q355.97,23.94 358.07,28.35Q360.17,32.76 364.02,35.17Q367.87,37.59 373.05,37.59Q377.95,37.59 381.13,35.53Q384.32,33.46 385.89,29.82Q387.47,26.18 387.47,21.49Q387.47,20.72 387.4,19.95Q387.33,19.18 387.19,18.06L360.24,18.06L360.24,22.05L382.29,22.05L381.66,21.63Q381.73,24.78 380.89,27.44Q380.05,30.1 378.02,31.71Q375.99,33.32 372.63,33.32Q369.06,33.32 366.61,31.43Q364.16,29.54 362.97,26.25Q361.78,22.96 361.78,18.62Q361.78,14 363.11,10.68Q364.44,7.35 366.99,5.53Q369.55,3.71 373.26,3.71Q375.85,3.71 378.93,4.73Q382.01,5.74 385.3,7.84L387.33,4.69Q383.41,2.03 379.49,0.7Q375.57,-0.63 371.93,-0.63Z
      M393.57,0L393.57,3.01L399.87,4.41L399.03,3.36L399.03,33.46L399.87,32.41L393.57,33.74L393.57,36.75L403.37,37.24L404.14,30.38L403.37,30.66Q406.87,34.23 410.68,35.91Q414.5,37.59 417.93,37.59Q422.55,37.59 425.59,34.76Q428.64,31.92 428.57,25.97L428.57,3.36L427.87,4.34L434.03,3.01L434.03,0L417.72,0L417.72,3.01L423.81,4.34L422.97,3.29L422.97,24.78Q422.97,29.12 421.01,31.15Q419.05,33.18 415.76,33.18Q413.17,33.18 410.12,31.78Q407.08,30.38 404.14,27.44L404.63,28.56L404.63,3.29L403.93,4.27L409.88,3.01L409.88,0L393.57,0Z
      M437.04,0L437.04,3.01L443.34,4.41L442.5,3.36L442.5,50.26L443.34,49.14L437.04,50.54L437.04,53.55L448.1,54.04L448.1,30.38L446.91,30.66Q450.34,34.23 454.15,35.91Q457.97,37.59 461.4,37.59Q464.48,37.59 466.93,36.33Q469.38,35.07 470.74,32.51Q472.11,29.96 472.04,26.04L472.04,3.36L471.34,4.34L477.57,3.01L477.57,0L461.19,0L461.19,3.01L467.28,4.34L466.44,3.29L466.44,24.78Q466.58,29.12 464.55,31.15Q462.52,33.18 459.23,33.18Q456.64,33.18 453.59,31.78Q450.55,30.38 447.61,27.37L448.1,28.56L448.1,3.29L447.4,4.27L453.35,3.01L453.35,0L437.04,0Z
      M499.35,37.59Q507.05,37.59 511.42,32.76Q515.8,27.93 515.8,19.11Q515.8,13.16 513.66,8.72Q511.53,4.27 507.61,1.82Q503.69,-0.63 498.16,-0.63Q490.6,-0.63 486.33,4.09Q482.06,8.82 482.06,17.71Q482.06,23.87 484.12,28.31Q486.19,32.76 490.07,35.17Q493.96,37.59 499.35,37.59ZM499.07,33.46Q493.68,33.46 490.81,29.4Q487.94,25.34 487.94,17.99Q487.94,10.78 490.67,7.14Q493.4,3.5 498.51,3.5Q502.22,3.5 504.77,5.36Q507.33,7.21 508.62,10.64Q509.92,14.07 509.92,18.83Q509.92,25.97 507.08,29.72Q504.25,33.46 499.07,33.46Z
      M536.38,-0.63Q531.69,-0.63 528.68,2.24Q525.67,5.11 525.67,11.06L525.67,33.39L526.37,32.41L520.21,33.74L520.21,36.75L531.27,37.17L531.27,12.04Q531.27,7.84 533.23,5.81Q535.19,3.78 538.48,3.78Q541.07,3.78 544.11,5.18Q547.16,6.58 550.1,9.52L549.61,8.26L549.61,33.53L550.31,32.41L544.15,33.74L544.15,36.75L555.21,37.24L555.21,3.43L554.37,4.34L560.74,3.15L560.74,0.07L550.87,-0.35L550.03,6.58L550.87,6.3Q547.37,2.73 543.59,1.05Q539.81,-0.63 536.38,-0.63Z
      M572.15,28Q572.15,25.76 573.62,24.5Q575.09,23.24 577.4,22.43Q579.71,21.63 582.3,20.86Q584.89,20.09 587.2,18.97Q589.51,17.85 590.98,15.89Q592.45,13.93 592.45,10.71Q592.45,7 590.42,4.48Q588.39,1.96 584.93,0.67Q581.46,-0.63 577.19,-0.63Q574.6,-0.63 571.87,-0.21Q569.14,0.21 566.27,0.98L566.76,10.36L570.33,10.36L571.03,3.5L570.4,4.27Q572.01,3.85 573.9,3.57Q575.79,3.29 577.4,3.29Q579.92,3.29 582.06,4.03Q584.19,4.76 585.52,6.2Q586.85,7.63 586.85,9.8Q586.85,12.11 585.42,13.44Q583.98,14.77 581.67,15.61Q579.36,16.45 576.81,17.19Q574.25,17.92 571.94,19.08Q569.63,20.23 568.16,22.12Q566.69,24.01 566.69,27.3Q566.69,30.87 568.55,33.15Q570.4,35.42 573.45,36.51Q576.49,37.59 579.99,37.59Q582.37,37.59 585.24,37.1Q588.11,36.61 591.12,35.63L590.77,27.72L587.2,27.72L586.15,33.53L586.99,32.55Q583.35,33.6 580.13,33.6Q576.7,33.6 574.43,32.17Q572.15,30.73 572.15,28Z
      M615.2,-0.63Q610.51,-0.63 606.9,1.51Q603.29,3.64 601.27,7.77Q599.23,11.9 599.23,17.85Q599.23,23.94 601.34,28.35Q603.43,32.76 607.28,35.17Q611.14,37.59 616.32,37.59Q621.22,37.59 624.4,35.53Q627.59,33.46 629.16,29.82Q630.73,26.18 630.73,21.49Q630.73,20.72 630.66,19.95Q630.59,19.18 630.46,18.06L603.51,18.06L603.51,22.05L625.55,22.05L624.92,21.63Q624.99,24.78 624.16,27.44Q623.32,30.1 621.28,31.71Q619.26,33.32 615.9,33.32Q612.33,33.32 609.88,31.43Q607.42,29.54 606.23,26.25Q605.04,22.96 605.04,18.62Q605.04,14 606.38,10.68Q607.71,7.35 610.26,5.53Q612.82,3.71 616.53,3.71Q619.11,3.71 622.2,4.73Q625.28,5.74 628.57,7.84L630.59,4.69Q626.67,2.03 622.76,0.7Q618.84,-0.63 615.2,-0.63Z
    "
  />
  <text x="400" y="370" text-anchor="middle" class="tagline">GROW TOGETHER</text>
</svg>
