<svg xmlns="http://www.w3.org/2000/svg" viewBox="0 0 800 460" role="img" aria-labelledby="title desc">
  <title id="title">Family Greenhouse</title>
  <desc id="desc">Two plants growing together inside a greenhouse, with the words Family Greenhouse and Grow together.</desc>
  <defs>
    <style>
      .wordmark { font-family: Gloock, Georgia, serif; font-size: 70px; font-weight: 400; fill: #27500A; }
      .tagline { font-family: "Instrument Sans", Arial, sans-serif; font-size: 18px; font-weight: 500; letter-spacing: 7px; fill: #3B6D11; }
    </style>
  </defs>

  <g transform="translate(286 18) scale(.445)">
    <circle cx="382" cy="106" r="42" fill="#D7E8A9"/>
    <path d="M96 224 256 82l160 142v202H96Z" fill="#DDEEE7"/>
    <path d="M96 224 256 82l160 142M96 224h320v202H96Z" fill="none" stroke="#27500A" stroke-width="14" stroke-linejoin="round"/>
    <path d="M256 88v338M103 225h306" fill="none" stroke="#3B6D11" stroke-width="7" opacity=".42"/>
    <path d="M112 238v174h288V238M112 240 256 112l144 128" fill="none" stroke="#FFFFFF" stroke-width="8" opacity=".6"/>
    <path d="M82 426h348" stroke="#A23F1A" stroke-width="18" stroke-linecap="round"/>
    <path d="M218 426V312h76v114" fill="#C0DD97" stroke="#27500A" stroke-width="9" stroke-linejoin="round"/>
    <circle cx="278" cy="370" r="6" fill="#A23F1A"/>
    <path d="M160 404V276M160 316c-33-2-51-21-54-51 33 0 53 18 54 51Zm0 40c37-2 58-22 62-57-37 1-59 20-62 57Z" fill="#639922" stroke="#27500A" stroke-width="8" stroke-linecap="round" stroke-linejoin="round"/>
    <path d="M352 404V270M352 308c33-2 51-21 54-51-33 0-53 18-54 51Zm0 44c-37-2-58-22-62-57 37 1 59 20 62 57Z" fill="#97C459" stroke="#27500A" stroke-width="8" stroke-linecap="round" stroke-linejoin="round"/>
  </g>

  <text x="400" y="318" text-anchor="middle" class="wordmark">Family Greenhouse</text>
  <text x="400" y="370" text-anchor="middle" class="tagline">GROW TOGETHER</text>
</svg>
