<svg xmlns="http://www.w3.org/2000/svg" viewBox="0 0 1200 630" role="img" aria-labelledby="title desc">
  <title id="title">Family Greenhouse</title>
  <desc id="desc">Plant care, shared. Reminders, schedules, and a care log for the whole household.</desc>
  <rect width="1200" height="630" fill="#173404"/>

  <!-- Greenhouse panes: structure at low contrast, kept clear of the copy. -->
  <g fill="none" stroke="#97C459" stroke-width="2" opacity=".12">
    <path d="M0 130 165 0M0 300 340 0M0 480 520 0M820 630 1200 292M1010 630 1200 462"/>
    <path d="M0 130 165 0 330 130M0 300 340 0 680 300M820 630 1010 462 1200 630"/>
  </g>
  <circle cx="1080" cy="94" r="120" fill="#639922" opacity=".16"/>

  <rect x="72" y="104" width="404" height="422" rx="42" fill="#F7F8F2"/>
  <g transform="translate(106 116) scale(.65625)">
    <circle cx="382" cy="106" r="42" fill="#D7E8A9"/>
    <path d="M96 224 256 82l160 142v202H96Z" fill="#DDEEE7"/>
    <path d="M96 224 256 82l160 142M96 224h320v202H96Z" fill="none" stroke="#27500A" stroke-width="14" stroke-linejoin="round"/>
    <path d="M256 88v338M103 225h306" fill="none" stroke="#3B6D11" stroke-width="7" opacity=".42"/>
    <path d="M112 238v174h288V238M112 240 256 112l144 128" fill="none" stroke="#FFFFFF" stroke-width="8" opacity=".6"/>
    <path d="M82 426h348" stroke="#A23F1A" stroke-width="18" stroke-linecap="round"/>
    <path d="M218 426V312h76v114" fill="#C0DD97" stroke="#27500A" stroke-width="9"/>
    <circle cx="278" cy="370" r="6" fill="#A23F1A"/>
    <path d="M160 404V276M160 316c-33-2-51-21-54-51 33 0 53 18 54 51Zm0 40c37-2 58-22 62-57-37 1-59 20-62 57Z" fill="#639922" stroke="#27500A" stroke-width="8" stroke-linecap="round" stroke-linejoin="round"/>
    <path d="M352 404V270M352 308c33-2 51-21 54-51-33 0-53 18-54 51Zm0 44c-37-2-58-22-62-57 37 1 59 20 62 57Z" fill="#97C459" stroke="#27500A" stroke-width="8" stroke-linecap="round" stroke-linejoin="round"/>
  </g>
  <path d="M132 474h284" stroke="#C0DD97" stroke-width="2"/>
  <text x="274" y="503" text-anchor="middle" font-family="Instrument Sans, Arial, sans-serif" font-size="18" font-weight="600" letter-spacing="4" fill="#3B6D11">GROW TOGETHER</text>

  <text x="548" y="136" font-family="Instrument Sans, Arial, sans-serif" font-size="22" font-weight="600" letter-spacing="5" fill="#97C459">FAMILY GREENHOUSE</text>
  <text x="548" y="238" font-family="Gloock, Georgia, serif" font-size="72" font-weight="400" fill="#F7F8F2">
    <tspan x="548" dy="0">Plant care,</tspan>
    <tspan x="548" dy="78">shared.</tspan>
  </text>
  <text x="552" y="390" font-family="Instrument Sans, Arial, sans-serif" font-size="29" fill="#DDEEE7">
    <tspan x="552" dy="0">Reminders, schedules, and a care log</tspan>
    <tspan x="552" dy="42">for the whole household.</tspan>
  </text>
  <rect x="548" y="478" width="334" height="54" rx="27" fill="#DC6C1F"/>
  <text x="715" y="513" text-anchor="middle" font-family="Instrument Sans, Arial, sans-serif" font-size="18" font-weight="700" letter-spacing="2" fill="#FFFFFF">FREE FOR UP TO 10 PLANTS</text>
</svg>
