<svg id="Layer_1" enable-background="new 0 0 68 68" height="512" viewBox="0 0 68 68" width="512" xmlns="http://www.w3.org/2000/svg"><g><g><g><g><g><g><g><g><g><g><path d="m55.9974899 20.1185627-8.4244003-1.0095577v-12.811791h8.4244003z" fill="#e5e8ef"/></g></g></g></g><g><g><g><g><path d="m55.9974899 20.1185627-8.4244003-1.0095577 8.4244003-12.811791z" fill="#cdd4df"/></g></g></g></g><g><g><g><g><path d="m57.6310349 2.8814652v2.6298826c0 .4301758-.3500977.7900391-.7900391.7900391h-10.1098633c-.4399414 0-.7900391-.3598633-.7900391-.7900391v-2.6298826c0-.4296875.3500977-.7797852.7900391-.7797852h10.1098633c.4399414 0 .7900391.3500977.7900391.7797852z" fill="#c175ff"/></g></g></g></g><g><g><g><g><path d="m56.8425446 6.297214h-10.1145096c-.4343834 0-.7865219-.352138-.7865219-.7865224l10.9010315-3.4121764c.4343834 0 .7865219.352138.7865219.7865222v2.6256542c0 .4343844-.3521386.7865224-.7865219.7865224z" fill="#b244f1"/></g></g></g></g></g><g><g><g><g><g><g><path d="m61.8589516 28.3002377v33.4424362h-55.7291947v-33.4424362l25.9353066-23.1670804c1.0989037-.9816132 2.7596779-.9816132 3.8585854 0z" fill="#e5e8ef"/></g></g></g></g><g><g><g><g><path d="m61.8628235 28.2994137v33.4426479h-55.7369361z" fill="#cdd4df"/></g></g></g></g><g><g><g><g><g><path d="m65.4511032 27.9815636-1.7800293 2.4301758c-.4199219.5898438-1.2399902.7099609-1.8300781.2900391l-27.8500977-20.3203135-27.8398428 20.3203134c-.5800781.4199219-1.3999023.2998047-1.8300781-.2900391l-1.7797852-2.4301758c-.420166-.590332-.2900391-1.4101563.2897949-1.8300781l29.4499512-21.5c1.0200195-.7397459 2.4001465-.7397459 3.420166 0l29.4699707 21.5c.5800772.4199219.7099601 1.2397461.2800284 1.8300782z" fill="#c175ff"/></g></g></g></g></g></g></g></g></g></g></g><g><g><g><g><g><g><g><path d="m34.1943398 34.0357704c-2.3197613 1.784523-5.8889122 1.0601311-7.9521599-1.6219559-1.3352242-1.7357044-1.8856621-5.6857719-2.1074562-8.6974506-.0425014-.5830479.2099819-1.1570797.6645412-1.5195465.4643383-.3834171 1.048296-.4924755 1.6112328-.3225708 3.022892.8824558 6.9078388 2.3070297 8.2557316 4.0592022 2.0632476 2.6820869 1.848072 6.3176422-.4718895 8.1023216z" fill="#4cc66e"/></g></g></g></g><g><g><g><g><path d="m34.6662292 25.9334488c2.0632477 2.6820869 1.8480721 6.3176422-.4718895 8.1023216-.4113312.3164215-.8649025.560482-1.3510323.7119331 1.280117-1.9278717 1.1187057-4.7762775-.5709496-6.9727192-1.3290462-1.7276707-5.1267776-3.1406898-8.1352539-4.0214481.0020542-.0143681-.0044346-.0228043-.0023804-.0371723-.0425014-.5830479.2099819-1.1570797.6645412-1.5195465.4643383-.3834171 1.048296-.4924755 1.6112328-.3225708 3.0228922.8824558 6.907839 2.3070297 8.2557317 4.0592022z" fill="#14a142"/></g></g></g></g><g><g><g><g><path d="m27.948658 46.5138321c-.6746387.5189781-1.4669018.9187202-2.3504295 1.1661568-2.0976372.5925255-5.9689465-.3713036-8.8467789-1.2867012-.5608826-.1842728-1.000042-.6188393-1.1706228-1.181366-.1649103-.5547409-.0560656-1.1621399.2998285-1.6187897 1.9501209-2.4694977 4.719305-5.5428658 6.848135-6.1459579 1.5664101-.4319572 3.1805592-.3251724 4.5628014.3142319 1.4028378.6491432 2.39645 1.7703819 2.7785587 3.1523056.5836086 2.0523834-.328146 4.2205543-2.1214924 5.6001205z" fill="#4cc66e"/></g></g></g></g><g><g><g><g><path d="m30.0701504 40.9137115c.0869904.3000946.1360989.6024818.1565762.9013138-.4657669-.5713882-1.0795574-1.0289078-1.8062515-1.360569-1.3819332-.6390076-2.9963913-.7461891-4.5626945-.3136787-2.128828.6030922-4.8978119 3.6763039-6.8482418 6.1454048-.0429192.0464439-.0714226.0945854-.1079617.1489067-.0582771-.0075989-.1000843-.0278664-.1501274-.0418015-.5608826-.1842728-1.000042-.6188393-1.1706228-1.181366-.1649103-.5547409-.0560656-1.1621399.2998285-1.6187897 1.9501209-2.4694977 4.719305-5.5428658 6.848135-6.1459579 1.5664101-.4319572 3.1805592-.3251724 4.5628014.3142319 1.4028376.6491433 2.3964499 1.770382 2.7785586 3.1523056z" fill="#14a142"/></g></g></g></g><g><g><g><g><path d="m54.2468758 40.0330963c-.0480385.4819756-.2978859.9235382-.6762772 1.2146263-.0739098.0568581-.1545105.1054344-.241291.145977-2.7508392 1.5138168-6.5077362 3.2516861-8.7057266 2.9648666-1.6094398-.2024803-3.0526657-.9382019-4.0669785-2.0697289-1.0419083-1.1499443-1.5158691-2.5660706-1.3298569-3.9924431.1921921-1.4183388 1.0073471-2.6739426 2.3008842-3.5117302 1.2770729-.825119 2.8611145-1.1664162 4.4703522-.9637833 2.168541.2826195 5.3472824 2.6954803 7.6362038 4.6668663.4385261.382622.6740723.9610292.61269 1.5453493z" fill="#4cc66e"/></g></g></g></g><g><g><g><g><path d="m54.2177353 40.0292931c-.0257645.2557602-.1080589.4891472-.2321625.7022667-2.2511177-1.9218216-5.2613564-4.1497192-7.3427925-4.4213409-1.609436-.2024765-3.1932793.1386642-4.4703484.9637833-1.2932281.8381882-2.1083832 2.093792-2.3008842 3.5117302-.0246544.189045-.040966.3723145-.034626.5509453-.551136-.9379501-.777874-1.9815903-.6393166-3.0440826.1921959-1.4183388 1.0073471-2.6739426 2.3008881-3.5117302 1.2770691-.825119 2.8611107-1.1664162 4.4703484-.9637833 2.168541.2826195 5.3472824 2.6954803 7.6364059 4.6667099.438633.3831786.6738739.9611853.6124878 1.5455016z" fill="#14a142"/></g></g></g></g></g><g><g><g><g><g><path d="m46.4368401 38.1192818c-4.1252594-1.3452072-7.4499817.4269295-9.6115379 2.5877609.0005417-.4590569-.0360794-.9150772-.0812683-1.3655396-.76688-7.0569839-5.8783531-11.1650772-6.0862103-11.3330765-.4568348-.3556786-1.1035137-.2769394-1.4571953.1653156-.3621197.448885-.2770901 1.1038513.1650696 1.4572868.0461864.0430984 4.6651325 3.7833271 5.3178577 9.9603672.0540848.4955177.0783272.9867439.0723801 1.4895897-.4323082-.3747025-.9176598-.6821976-1.4810104-.9038582-4.2081947-1.725338-10.5422325 1.8372993-10.8140526 1.9943733-.4950294.2757072-.6677151.9194107-.3837204 1.4081497.2821484.5029793.9113674.673912 1.4145908.3916702 1.5750465-.8972664 6.2741795-2.9933739 8.9929829-1.8766747.9346657.3808403 1.5577126 1.1060066 1.9078636 2.2248459-.5382271 2.4834061-3.3205757 7.2682266-5.0432777 9.6157875-.0360928.04916-.3831291.5176353-.7218189 1.2918129-.3695183.8446541.4468784 1.7232552 1.3072586 1.3920021h.0000019c.2553558-.0983124.4634781-.2972946.5719204-.5485153.2238541-.518589.4445038-.8305817.4588547-.8517113.2903557-.3541756.9216213-1.1676712.9606133-1.2362328 2.3699169-3.1328125 3.8805294-6.2589111 4.529562-9.3644524 0 0 .0079498-.006443.0102844-.0208702.5302505-.9448395 3.7985916-6.3136101 9.3281746-4.50457.3414612.1035957.6916618.0307732.9548378-.1714516.1562614-.1204796.2893944-.2878571.3532867-.4945259.1777266-.5317799-.1902734-1.1567189-.6654473-1.3074833z" fill="#14a142"/></g></g></g></g></g></g></g><g><g><g><g><path d="m53.8610153 60.2515831h-37.95996c3.9399424-6.3398438 10.9599619-10.5800781 18.9799805-10.5800781s15.0400381 4.2402343 18.9799795 10.5800781z" fill="#ffd80c"/></g></g></g></g><g><g><g><g><path d="m53.8610153 60.2515831h-37.95996l28.1201172-8.6298828c4.0798331 1.8398437 7.4999991 4.8696289 9.8398428 8.6298828z" fill="#ffbe00"/></g></g></g></g><g><g><g><g><path d="m63.4908981 61.0015831v3.1000938c0 .9897461-.8098145 1.7998047-1.7998047 1.7998047h-55.3901357c-1 0-1.7998047-.8100586-1.7998047-1.7998047v-3.1000938c0-.9902344.7998047-1.7998047 1.7998047-1.7998047h55.3901367c.9899893 0 1.7998037.8095703 1.7998037 1.7998047z" fill="#c175ff"/></g></g></g></g><g><g><g><g><path d="m63.4908981 61.0015831v3.1000938c0 .9897461-.8098145 1.7998047-1.7998047 1.7998047h-6.8300781c.9899902 0 1.8000488-.8100586 1.8000488-1.7998047v-3.1000938c0-.9902344-.8100586-1.7998047-1.8000488-1.7998047h6.8300781c.9899903 0 1.7998047.8095703 1.7998047 1.7998047z" fill="#b244f1"/></g></g></g></g></g></svg>